<?xml version="1.0" encoding="UTF-8" standalone="no"?>
<svg
   xmlns:dc="http://purl.org/dc/elements/1.1/"
   xmlns:cc="http://creativecommons.org/ns#"
   xmlns:rdf="http://www.w3.org/1999/02/22-rdf-syntax-ns#"
   xmlns:svg="http://www.w3.org/2000/svg"
   xmlns="http://www.w3.org/2000/svg"
   xmlns:sodipodi="http://sodipodi.sourceforge.net/DTD/sodipodi-0.dtd"
   xmlns:inkscape="http://www.inkscape.org/namespaces/inkscape"
   fill="#FFFFFF"
   viewBox="0 0 50 50"
   width="50px"
   height="50px"
   version="1.1"
   id="svg4"
   sodipodi:docname="mail.svg"
   inkscape:version="1.0.1 (3bc2e813f5, 2020-09-07)">
  <metadata
     id="metadata10">
    <rdf:RDF>
      <cc:Work
         rdf:about="">
        <dc:format>image/svg+xml</dc:format>
        <dc:type
           rdf:resource="http://purl.org/dc/dcmitype/StillImage" />
      </cc:Work>
    </rdf:RDF>
  </metadata>
  <defs
     id="defs8" />
  <sodipodi:namedview
     pagecolor="#ffffff"
     bordercolor="#666666"
     borderopacity="1"
     objecttolerance="10"
     gridtolerance="10"
     guidetolerance="10"
     inkscape:pageopacity="0"
     inkscape:pageshadow="2"
     inkscape:window-width="1440"
     inkscape:window-height="846"
     id="namedview6"
     showgrid="false"
     inkscape:zoom="12.56"
     inkscape:cx="25"
     inkscape:cy="25"
     inkscape:window-x="0"
     inkscape:window-y="26"
     inkscape:window-maximized="1"
     inkscape:current-layer="svg4" />
  <path
     d="M 14 4 C 8.4886661 4 4 8.4886661 4 14 L 4 36 C 4 41.511334 8.4886661 46 14 46 L 36 46 C 41.511334 46 46 41.511334 46 36 L 46 14 C 46 8.4886661 41.511334 4 36 4 L 14 4 z M 13 16 L 37 16 C 37.18 16 37.349766 16.020312 37.509766 16.070312 L 27.679688 25.890625 C 26.199688 27.370625 23.790547 27.370625 22.310547 25.890625 L 12.490234 16.070312 C 12.650234 16.020312 12.82 16 13 16 z M 11.070312 17.490234 L 18.589844 25 L 11.070312 32.509766 C 11.020312 32.349766 11 32.18 11 32 L 11 18 C 11 17.82 11.020312 17.650234 11.070312 17.490234 z M 38.929688 17.490234 C 38.979688 17.650234 39 17.82 39 18 L 39 32 C 39 32.18 38.979687 32.349766 38.929688 32.509766 L 31.400391 25 L 38.929688 17.490234 z M 20 26.410156 L 20.890625 27.310547 C 22.020625 28.440547 23.510234 29 24.990234 29 C 26.480234 29 27.959844 28.440547 29.089844 27.310547 L 29.990234 26.410156 L 37.509766 33.929688 C 37.349766 33.979688 37.18 34 37 34 L 13 34 C 12.82 34 12.650234 33.979687 12.490234 33.929688 L 20 26.410156 z"
     id="path2"
     style="fill:#1a1a1a" />
</svg>
