<?xml version="1.0" encoding="UTF-8" standalone="no"?>
<svg
   xmlns:dc="http://purl.org/dc/elements/1.1/"
   xmlns:cc="http://creativecommons.org/ns#"
   xmlns:rdf="http://www.w3.org/1999/02/22-rdf-syntax-ns#"
   xmlns:svg="http://www.w3.org/2000/svg"
   xmlns="http://www.w3.org/2000/svg"
   xmlns:sodipodi="http://sodipodi.sourceforge.net/DTD/sodipodi-0.dtd"
   xmlns:inkscape="http://www.inkscape.org/namespaces/inkscape"
   fill="#FFFFFF"
   viewBox="0 0 50 50"
   width="50px"
   height="50px"
   version="1.1"
   id="svg4"
   sodipodi:docname="twitterx.svg"
   inkscape:version="1.0.1 (3bc2e813f5, 2020-09-07)">
  <metadata
     id="metadata10">
    <rdf:RDF>
      <cc:Work
         rdf:about="">
        <dc:format>image/svg+xml</dc:format>
        <dc:type
           rdf:resource="http://purl.org/dc/dcmitype/StillImage" />
      </cc:Work>
    </rdf:RDF>
  </metadata>
  <defs
     id="defs8" />
  <sodipodi:namedview
     pagecolor="#ffffff"
     bordercolor="#666666"
     borderopacity="1"
     objecttolerance="10"
     gridtolerance="10"
     guidetolerance="10"
     inkscape:pageopacity="0"
     inkscape:pageshadow="2"
     inkscape:window-width="1440"
     inkscape:window-height="846"
     id="namedview6"
     showgrid="false"
     inkscape:zoom="12.56"
     inkscape:cx="25"
     inkscape:cy="25"
     inkscape:window-x="0"
     inkscape:window-y="26"
     inkscape:window-maximized="1"
     inkscape:current-layer="svg4" />
  <path
     d="M 11 4 C 7.134 4 4 7.134 4 11 L 4 39 C 4 42.866 7.134 46 11 46 L 39 46 C 42.866 46 46 42.866 46 39 L 46 11 C 46 7.134 42.866 4 39 4 L 11 4 z M 13.085938 13 L 21.023438 13 L 26.660156 21.009766 L 33.5 13 L 36 13 L 27.789062 22.613281 L 37.914062 37 L 29.978516 37 L 23.4375 27.707031 L 15.5 37 L 13 37 L 22.308594 26.103516 L 13.085938 13 z M 16.914062 15 L 31.021484 35 L 34.085938 35 L 19.978516 15 L 16.914062 15 z"
     id="path2"
     style="fill:#1a1a1a" />
</svg>
