<?xml version="1.0" encoding="UTF-8" standalone="no"?>
<!-- Created with Inkscape (http://www.inkscape.org/) -->

<svg
   version="1.1"
   id="svg1"
   width="410.74948"
   height="378.09003"
   viewBox="0 0 410.74948 378.09003"
   xmlns="http://www.w3.org/2000/svg"
   xmlns:svg="http://www.w3.org/2000/svg">
  <defs
     id="defs1" />
  <g
     id="g1"
     transform="translate(-28,441)">
    <path
       id="path5-6"
       style="fill:#c08400;fill-opacity:1;stroke-width:0.252437;stroke-opacity:0.476994;paint-order:stroke fill markers"
       d="m 290.36591,-415.68031 c -3.77573,6.18195 -25.25936,-4.63235 -47.5985,-5.45688 -31.06034,-1.14644 -68.87729,7.91173 -108.4832,27.72583 -68.091148,34.06473 -76.155361,110.79152 -90.498205,101.09035 -7.77237,-5.25705 0.542675,-24.74725 13.625789,-51.44493 1.84126,-3.75735 5.444438,-10.94917 8.511923,-15.43153 9.484311,-13.85896 22.102053,-26.70561 37.452783,-39.37759 4.48089,-3.69895 10.60494,-7.06509 16.05466,-9.79148 9.22727,-4.61622 19.14019,-12.96362 28.78017,-15.9633 16.09105,-5.0071 32.45334,-9.98449 48.34852,-10.60261 20.94821,-0.81461 41.51723,-0.25147 57.65349,3.59004 9.85385,2.34589 20.27108,5.29016 26.57209,8.42706 5.47349,2.72492 12.17853,2.98125 9.58048,7.23504 z" />
    <path
       style="fill:#151922;stroke:none;stroke-width:1.35253"
       d="m 280.50358,-93.00779 c -25.1554,8.25667 -50.72099,12.42908 -77.09415,7.43881 -59.56768,-11.2712 -112.166527,-65.44666 -112.259922,-127.8139 h 1.352528 c 4.276182,61.78508 66.471214,102.09332 123.080144,100.08715 v -1.35252 c -40.69521,-0.79391 -80.67134,-38.88325 -90.61945,-77.09417 h 1.35254 c 5.31168,15.69393 20.69866,29.19618 35.16575,36.51829 -24.28329,-42.74731 -32.64837,-90.12076 -18.12736,-137.95797 4.27921,-14.09714 11.71845,-26.12915 18.12736,-39.22335 h 1.35253 c -12.64237,29.36732 -23.64442,60.28249 -10.82023,91.97198 h 1.35252 c -2.94536,-14.34438 1.75113,-31.40387 7.38134,-44.63346 24.97047,-58.67469 117.01452,-91.40723 161.6848,-33.81322 -12.63662,-11.82984 -25.96487,-20.34127 -43.28093,-22.993 v 1.35253 l 9.4677,9.4677 9.4677,8.11518 v 1.35252 c -21.18044,-4.50998 -39.7241,-5.03864 -60.8638,0 l 10.82023,-17.58287 v -1.35253 c -30.15816,7.47111 -50.79158,31.77246 -55.4537,62.21634 h 1.35253 c 24.3099,-48.03205 105.13627,-59.75936 130.65741,-5.41012 12.02253,25.60287 -15.69754,34.20072 -34.62784,24.34554 15.28513,22.63017 48.59883,11.38627 62.23863,-6.77307 18.62184,-24.79204 18.76964,-60.01781 7.42412,-87.90398 -17.78891,-43.72348 -62.02468,-70.7934 -106.18103,-81.65532 -34.33969,-8.44711 -72.33995,-6.96563 -105.49728,5.6761 -119.42924,45.53434 -159.371597,212.32445 -75.28242,308.61423 38.68856,44.30193 102.44981,69.66882 160.49175,53.69699 16.5765,-4.56149 35.60581,-12.29025 47.33853,-25.29388 m 8.11517,-325.95952 v 1.35252 c -22.86104,-5.62888 -43.80637,-10.56837 -67.62645,-9.36236 -73.81062,3.73697 -146.432357,52.00336 -175.828781,120.26976 h -1.352527 l 11.342588,-29.09934 4.887759,-10.124 1.352528,-2.70506 1.352528,-2.70506 2.705063,-4.05758 4.387613,-5.3563 c 0,0 11.685555,-15.23123 18.530597,-21.91372 7.478212,-7.30064 24.420302,-19.6636 24.420302,-19.6636 52.58212,-37.0424 116.91142,-35.97402 175.82878,-16.63526 m 2.70506,1.80334 c 1.0461,0 0.21667,0.67345 -0.45085,0.4509 l 0.45085,-0.4509 m 4.05759,0.90171 -1.35254,1.35254 1.35254,-1.35254 m -217.757184,47.33853 v 0 m -2.705055,2.70507 v 0 m 93.324509,27.05057 -4.0576,6.76264 h -1.35252 l 5.41012,-6.76264 m 68.97898,17.58287 -1.35253,1.35254 1.35253,-1.35254 m 62.21633,0 -1.35253,1.35254 1.35253,-1.35254 m 24.34553,2.70507 9.46771,16.23035 h -1.35254 l -8.11517,-16.23035 m -280.424361,14.42699 -0.45085,0.90164 0.45085,-0.90164 m -0.901682,3.15589 -1.352537,1.35252 1.352537,-1.35252 m 294.400483,3.60676 -0.45083,0.90164 0.45083,-0.90164 m 93.77536,38.32165 -16.23035,14.93609 -27.05058,26.9923 c 4.31172,-19.8618 21.98664,-33.43862 40.57587,-39.22334 v -1.35253 c -34.88755,3.57572 -56.89142,32.48165 -86.56186,47.33852 l 20.28793,-20.28795 v -1.35252 l -36.51828,24.34552 9.4677,-21.64047 h -1.35252 c -12.05609,26.36309 -38.80469,48.51324 -67.62646,53.39948 -36.77552,6.23464 -74.93894,-19.74145 -75.74163,-58.80959 h -1.35253 c -8.60847,38.46386 9.08636,77.55925 45.98599,93.44164 17.63039,7.5885 35.26742,7.99804 54.10116,7.99804 v -1.35253 c -17.93183,-4.72205 -17.11769,-26.51078 -31.10816,-35.16575 v -1.35253 c 24.02104,-1.44053 43.08003,-11.33108 63.56886,-22.99299 3.52802,17.05388 17.02194,32.06708 6.76265,48.69104 28.69101,-14.04554 48.83629,-39.43881 67.01796,-64.92139 12.73452,-17.84821 23.85438,-37.98234 43.88942,-48.69104 h -8.11517 m -33.81323,18.93539 -29.75564,40.57588 c 6.86092,-15.12285 16.34101,-30.54055 29.75564,-40.57588 m -62.21634,8.11518 1.35253,1.35252 -1.35253,-1.35252 M 91.149508,-218.793 v 5.41012 h -1.352527 l 1.352527,-5.41012 m 302.966512,4.05758 -1.35253,1.35254 1.35253,-1.35254 m -2.70506,4.0576 -27.05057,31.10817 27.05057,-31.10817 m -67.62645,13.52529 -2.70506,2.70506 2.70506,-2.70506 m -198.82178,4.05758 -1.35253,1.35253 1.35253,-1.35253 m 290.79375,1.35253 v 10.82024 z"
       id="path4-2" />
    <path
       id="rect4-9"
       style="fill:#c08400;fill-opacity:1;stroke-width:1.36352;stroke-opacity:0.476994;paint-order:stroke fill markers"
       d="m 247.94456,-340.54662 c 0,0 11.3243,-1.69288 15.92657,-1.91573 5.8331,-0.28244 15.36386,0.54071 15.36386,0.54071 l 5.80966,1.24356 c 0,0 3.99844,0.98809 5.89631,1.64123 2.00385,0.68961 5.99429,2.31614 5.99429,2.31614 0,0 3.85909,1.95379 5.6497,2.97941 1.65531,0.94814 4.77509,2.71179 4.77509,2.71179 l 6.97586,5.1246 4.00875,3.37082 4.09004,3.64113 1.53901,1.58526 1.56544,2.04318 6.50953,12.7062 c 0,0 2.68551,11.56029 2.10366,13.1982 -0.88703,2.49706 -4.27855,11.61364 -4.27855,11.61364 l -2.35347,6.54353 c 0,0 0.076,-1.13844 -0.0457,-2.43838 -0.17438,-1.86082 -0.58652,-4.09301 -0.7824,-4.13425 0.0509,-0.98694 -2.52727,-7.16612 -4.50064,-10.51135 l -2.7923,-4.58667 -5.5533,-6.94855 -6.88992,-6.38798 -8.35198,-5.58943 -11.05731,-4.62855 -5.31961,-1.35927 -8.13555,-1.49838 -7.64622,-0.41883 -6.54372,0.19774 -7.47171,0.90411 -7.26609,1.48073 -6.97541,2.04835 -4.62325,1.64539 -11.11913,5.53506 -9.58427,6.55058 -6.85431,6.23967 -5.74722,6.53576 -6.18762,10.20059 -1.64542,0.0339 c 0,0 1.43752,-7.05275 3.3553,-13.37709 1.55352,-5.12307 5.50374,-12.76624 5.50374,-12.76624 0,0 3.07278,-5.30252 4.88442,-7.76641 2.1165,-2.87858 4.37355,-5.68659 6.95918,-8.15242 1.03006,-0.98234 1.37548,-1.53444 3.60393,-3.61779 2.20453,-2.06098 5.50609,-4.66196 8.33631,-6.36037 1.37753,-0.82665 2.11944,-1.43 3.50102,-2.2327 1.9455,-1.13036 4.5281,-2.42516 6.43693,-3.2832 6.9809,-3.13797 12.93655,-4.65778 12.93655,-4.65778 z" />
    <path
       d="m 430.60358,-259.38813 -16.23035,14.9361 -27.05059,26.9923 c 4.31174,-19.86181 21.98665,-33.43862 40.57588,-39.22335 v -1.35252 c -34.88755,3.57571 -56.89141,32.48167 -86.56186,47.33851 l 20.28793,-20.28792 v -1.35254 l -36.51828,24.34552 9.4677,-21.64046 h -1.35252 c -12.05609,26.36308 -38.80469,48.51323 -67.62647,53.39947 -36.77551,6.23464 -74.93892,-19.74145 -75.74163,-58.80959 h -1.35252 c -8.60846,38.46387 9.08635,77.55926 45.98599,93.44163 17.63039,7.58851 35.26741,7.99805 54.10116,7.99805 0,0 13.61753,-1.81339 19.64561,-3.64832 7.09718,-2.16034 19.57774,-8.52443 19.57774,-8.52443 28.69101,-14.04555 48.8363,-39.43882 67.01796,-64.92141 12.73453,-17.8482 23.85438,-37.98234 43.88943,-48.69104 h -8.11518 m -33.81323,18.93541 -29.75565,40.57587 c 6.86094,-15.12285 16.34102,-30.54056 29.75565,-40.57587 m -62.21634,8.11517 1.35253,1.35254 -1.35253,-1.35254 m 59.51128,17.58288 -1.35253,1.35252 1.35253,-1.35252 m -2.70505,4.05758 -27.05059,31.10818 27.05059,-31.10818 m -67.62646,13.52529 v 0 m 91.97198,5.41012 v 10.82023 z"
       style="fill:#c08400;fill-opacity:1;stroke:none;stroke-width:1.35253"
       id="path1-1" />
  </g>
</svg>
