<?xml version="1.0" encoding="UTF-8" standalone="no"?>
<svg
   xmlns:dc="http://purl.org/dc/elements/1.1/"
   xmlns:cc="http://creativecommons.org/ns#"
   xmlns:rdf="http://www.w3.org/1999/02/22-rdf-syntax-ns#"
   xmlns:svg="http://www.w3.org/2000/svg"
   xmlns="http://www.w3.org/2000/svg"
   xmlns:sodipodi="http://sodipodi.sourceforge.net/DTD/sodipodi-0.dtd"
   xmlns:inkscape="http://www.inkscape.org/namespaces/inkscape"
   version="1.1"
   id="svg1"
   width="1139.6997"
   height="273.9407"
   viewBox="0 0 1139.6997 273.94071"
   sodipodi:docname="logo.svg"
   inkscape:version="1.0.1 (3bc2e813f5, 2020-09-07)">
  <metadata
     id="metadata15">
    <rdf:RDF>
      <cc:Work
         rdf:about="">
        <dc:format>image/svg+xml</dc:format>
        <dc:type
           rdf:resource="http://purl.org/dc/dcmitype/StillImage" />
      </cc:Work>
    </rdf:RDF>
  </metadata>
  <sodipodi:namedview
     id="namedview1"
     pagecolor="#000000"
     bordercolor="#000000"
     borderopacity="0.25"
     inkscape:showpageshadow="2"
     inkscape:pageopacity="0.0"
     inkscape:pagecheckerboard="true"
     inkscape:deskcolor="#d1d1d1"
     labelstyle="default"
     shape-rendering="auto"
     inkscape:zoom="0.56819391"
     inkscape:cx="533.18864"
     inkscape:cy="102.66061"
     inkscape:window-width="1440"
     inkscape:window-height="846"
     inkscape:window-x="0"
     inkscape:window-y="26"
     inkscape:window-maximized="1"
     inkscape:current-layer="svg1"
     inkscape:document-rotation="0"
     showgrid="false" />
  <defs
     id="defs1">
    <rect
       x="404.5611"
       y="702.55945"
       width="471.51846"
       height="110.27436"
       id="rect5-7" />
  </defs>
  <path
     id="path5-5"
     style="fill:#4d4d4d;fill-opacity:1;stroke-width:0.177731;stroke-opacity:0.476994;paint-order:stroke fill markers"
     d="M 199.75325,23.651125 C 197.06847,27.960749 181.79222,20.42177 165.90764,19.846968 143.82174,19.04775 116.93145,25.362472 88.7691,39.175484 40.351891,62.923032 34.617725,116.41158 24.419027,109.6486 c -5.526658,-3.66484 0.385878,-17.25205 9.68882,-35.863806 1.309251,-2.619358 3.871343,-7.632993 6.052523,-10.75778 6.74396,-9.661501 15.715993,-18.617288 26.631351,-27.451302 3.186206,-2.578649 7.540793,-4.925289 11.415895,-6.825934 6.561184,-3.218108 13.60991,-9.037331 20.464564,-11.128505 11.44177,-3.490595 23.07641,-6.960483 34.37891,-7.391392 14.89553,-0.5678928 29.52143,-0.175308 40.99535,2.502724 7.00672,1.635383 14.41405,3.687926 18.89447,5.874759 3.89201,1.899616 8.65973,2.07832 6.81234,5.043761 z" />
  <path
     style="fill:#1a1a1a;stroke:none;stroke-width:0.952266"
     d="m 192.74049,248.59584 c -17.88711,5.75599 -36.06589,8.6647 -54.81891,5.18581 -42.356456,-7.85749 -79.757634,-45.62482 -79.824046,-89.1029 h 0.961737 c 3.040644,43.07224 47.265319,71.17229 87.517929,69.77379 v -0.94287 c -28.93692,-0.55352 -57.362533,-27.10672 -64.436275,-53.7447 h 0.961736 c 3.776952,10.94071 14.718092,20.35353 25.005119,25.458 -17.266986,-29.80045 -23.215097,-62.8259 -12.889719,-96.17466 3.042793,-9.827539 8.332569,-18.215414 12.889719,-27.343776 h 0.96174 c -8.98955,20.472846 -16.812708,42.024736 -7.69389,64.116436 h 0.96174 c -2.09435,-9.9999 1.24516,-21.89259 5.2486,-31.11533 C 125.34159,73.801748 190.79085,50.982907 222.55429,91.13343 213.56885,82.886495 204.0916,76.952917 191.77876,75.104316 v 0.94289 l 6.73214,6.600218 6.73216,5.657337 v 0.94288 c -15.06066,-3.144039 -28.2464,-3.51259 -43.2781,0 l 7.69388,-12.257545 v -0.94289 c -21.4444,5.208331 -36.11609,22.149535 -39.43115,43.372884 h 0.96173 c 17.28591,-33.484589 74.75868,-41.660045 92.90585,-3.77156 8.5488,17.84853 -11.16196,23.84235 -24.62263,16.97201 10.86872,15.77617 34.55691,7.93771 44.25568,-4.72171 13.24134,-17.28328 13.34644,-41.840219 5.27903,-61.280511 C 236.3583,36.13737 204.90381,17.266107 173.50579,9.6939419 149.08805,3.8052019 122.06742,4.8379872 98.490424,13.65092 13.568529,45.394278 -14.833071,161.66869 44.959767,228.79518 c 27.510062,30.8842 72.848413,48.56823 114.119983,37.4338 11.78696,-3.17996 25.31803,-8.56794 33.66074,-17.63314 M 198.5109,21.359656 v 0.94288 C 182.25524,18.378483 167.36175,14.935015 150.42413,15.775761 97.940033,18.380908 46.301287,52.028864 25.398536,99.619427 H 24.4368 l 8.065313,-20.28603 3.475514,-7.05774 0.961726,-1.885779 0.961737,-1.885779 1.923473,-2.82866 3.119882,-3.734043 c 0,0 8.309182,-10.61815 13.176444,-15.276715 C 61.43839,41.575188 73.485307,32.956594 73.485307,32.956594 110.87458,7.1332282 156.61686,7.8780259 198.5109,21.359656 m 1.92348,1.257164 c 0.74384,0 0.15407,0.469482 -0.32058,0.314332 l 0.32058,-0.314332 m 2.88521,0.628606 -0.96174,0.942899 0.96174,-0.942899 M 48.48018,56.246543 v 0 m -1.923463,1.885789 v 0 m 66.359743,18.857764 -2.88521,4.714438 h -0.96173 l 3.84694,-4.714438 m 49.0485,12.257545 -0.96174,0.9429 0.96174,-0.9429 m 44.23983,0 -0.96173,0.9429 0.96173,-0.9429 m 17.31124,1.885789 6.73216,11.31467 h -0.96175 l -5.77041,-11.31467 m -199.399806,10.05748 -0.320585,0.62857 0.320585,-0.62857 m -0.641161,2.20008 -0.961736,0.94288 0.961736,-0.94288 m 209.337747,2.51437 -0.32058,0.62857 0.32058,-0.62857 m 66.68032,26.71518 -11.54079,10.41239 -19.23474,18.81715 c 3.06592,-13.84626 15.63391,-23.31106 28.8521,-27.34377 v -0.94289 c -24.80733,2.49274 -40.45351,22.64394 -61.55111,33.00111 l 14.42603,-14.14334 v -0.94288 l -25.96685,16.97199 6.73214,-15.08622 h -0.96172 c -8.57266,18.3785 -27.59264,33.82004 -48.08679,37.22639 -26.14976,4.34635 -53.28642,-13.76237 -53.85717,-40.99794 h -0.96174 c -6.12118,26.81432 6.46098,54.06888 32.699,65.14098 12.53635,5.29017 25.07741,5.57567 38.46941,5.57567 v -0.94289 c -12.75068,-3.29188 -12.17178,-18.48146 -22.1199,-24.5151 v -0.94289 c 17.08051,-1.00423 30.63268,-7.89923 45.20156,-16.0291 2.50865,11.88876 12.1037,22.35492 4.80868,33.94399 20.40116,-9.79157 34.72575,-27.49399 47.6541,-45.25866 9.05508,-12.44253 16.96197,-26.47863 31.20823,-33.94399 h -5.77044 m -24.04338,13.20043 -21.15818,28.28667 c 4.87855,-10.5426 11.61951,-21.29074 21.15818,-28.28667 m -44.23984,5.65734 0.96174,0.94288 -0.96174,-0.94288 M 58.097534,160.9072 v 3.77155 h -0.961726 l 0.961726,-3.77155 m 215.428736,2.82865 -0.96173,0.9429 0.96173,-0.9429 m -1.92347,2.82868 -19.2347,21.68644 19.2347,-21.68644 m -48.08677,9.42889 -1.92347,1.88578 1.92347,-1.88578 m -141.375105,2.82866 -0.961737,0.94289 0.961737,-0.94289 m 206.773135,0.94289 v 7.54312 z"
     id="path4-6" />
  <path
     id="rect4-2"
     style="fill:#4d4d4d;fill-opacity:1;stroke-width:0.960003;stroke-opacity:0.476994;paint-order:stroke fill markers"
     d="m 169.58894,76.029079 c 0,0 8.05231,-1.180152 11.32482,-1.335514 4.1477,-0.196898 10.92469,0.37695 10.92469,0.37695 l 4.13104,0.866917 c 0,0 2.84316,0.688828 4.19265,1.144157 1.42488,0.480749 4.26234,1.614648 4.26234,1.614648 0,0 2.74406,1.36205 4.0173,2.07704 1.17703,0.660974 3.3954,1.890465 3.3954,1.890465 l 4.96028,3.572514 2.85049,2.349902 2.90828,2.538343 1.09433,1.105131 1.11313,1.424361 4.62869,8.857877 c 0,0 1.90958,8.05902 1.49585,9.20086 -0.63074,1.74077 -3.04233,8.09622 -3.04233,8.09622 l -1.67347,4.56169 c 0,0 0.0541,-0.79364 -0.0325,-1.69987 -0.12399,-1.29723 -0.41705,-2.85336 -0.55634,-2.88211 0.0362,-0.68802 -1.79705,-4.99572 -3.20024,-7.32777 l -1.9855,-3.19751 -3.94876,-4.84404 -4.89918,-4.453261 -5.9388,-3.896555 -7.86245,-3.2267 -3.78259,-0.947594 -5.7849,-1.044563 -5.43696,-0.29198 -4.65301,0.13785 -5.31287,0.63028 -5.16666,1.032266 -4.95996,1.427968 -3.28743,1.147044 -7.90642,3.858663 -6.81503,4.566602 -4.87386,4.34986 -4.08664,4.55628 -4.3998,7.11114 -1.17,0.0237 c 0,0 1.02217,-4.91669 2.38583,-9.32557 1.10466,-3.57145 3.91352,-8.89973 3.91352,-8.89973 0,0 2.18494,-3.696549 3.47313,-5.414198 1.50498,-2.006754 3.10989,-3.964301 4.94843,-5.683298 0.73244,-0.684825 0.97806,-1.069703 2.56263,-2.522072 1.56756,-1.436773 3.91518,-3.249995 5.92765,-4.434004 0.97952,-0.576283 1.50706,-0.996897 2.48946,-1.556486 1.38337,-0.788009 3.21977,-1.690651 4.57707,-2.288814 4.96387,-2.187574 9.19871,-3.247079 9.19871,-3.247079 z" />
  <path
     d="m 299.4713,132.6071 -11.54087,10.41241 -19.23468,18.81714 c 3.06592,-13.84626 15.63393,-23.31107 28.85205,-27.34378 v -0.94288 c -24.80729,2.49274 -40.45345,22.64396 -61.55105,33.0011 l 14.42602,-14.14331 v -0.9429 l -25.96685,16.97199 6.73215,-15.08621 h -0.96173 c -8.57266,18.37849 -27.59265,33.82003 -48.08679,37.22637 -26.14976,4.34636 -53.2864,-13.76235 -53.85719,-40.99793 h -0.96172 c -6.12118,26.81432 6.46098,54.06889 32.699,65.14097 12.53634,5.29018 25.07741,5.57568 38.46942,5.57568 0,0 9.68294,-1.26417 13.9693,-2.54335 5.04654,-1.50603 13.92103,-5.94264 13.92103,-5.94264 20.40116,-9.79157 34.72576,-27.49398 47.65409,-45.25867 9.05511,-12.44251 16.96201,-26.47862 31.20825,-33.94399 h -5.77043 m -24.0434,13.20045 -21.15819,28.28666 c 4.87857,-10.54259 11.61952,-21.29074 21.15819,-28.28666 m -44.23983,5.65733 0.96173,0.9429 -0.96173,-0.9429 m 42.31636,12.25755 -0.96174,0.94288 0.96174,-0.94288 m -1.92347,2.82866 -19.23471,21.68645 19.23471,-21.68645 m -48.08678,9.42889 v 0 m 65.39805,3.77156 v 7.5431 z"
     style="fill:#333333;fill-opacity:1;stroke:none;stroke-width:0.952266"
     id="path1-9" />
  <text
     xml:space="preserve"
     id="text5-1"
     style="font-style:normal;font-variant:normal;font-weight:800;font-stretch:normal;font-size:37.3333px;font-family:SUSE;-inkscape-font-specification:'SUSE Ultra-Bold';white-space:pre;shape-inside:url(#rect5-7);display:inline;fill:#1a1a1a;fill-opacity:1;stroke-width:0.4;stroke-opacity:0.476994;paint-order:stroke fill markers;"
     transform="matrix(4.7010598,0,0,4.1050853,-1599.3872,-2828.1877)"><tspan
       x="404.56055"
       y="736.88733"><tspan
         style="fill:#1a1a1a">onect-arte</tspan></tspan></text>
  <text
     xml:space="preserve"
     style="font-style:normal;font-variant:normal;font-weight:bold;font-stretch:normal;font-size:67.7296px;font-family:SUSE;-inkscape-font-specification:'SUSE Bold';fill:#333333;fill-opacity:1;stroke-width:0.84662;stroke-opacity:0.476994;paint-order:stroke fill markers;"
     x="320.76529"
     y="259.25421"
     id="text6-2"
     transform="matrix(0.96538626,0,-0.00570638,1.0358548,0,0)"><tspan
       id="tspan6-7"
       x="320.76529"
       y="259.25421"
       style="font-style:normal;font-variant:normal;font-weight:bold;font-stretch:normal;font-family:SUSE;-inkscape-font-specification:'SUSE Bold';fill:#333333;fill-opacity:1;stroke-width:0.84662;">Alianza Teatral</tspan></text>
</svg>
