<?xml version="1.0" encoding="UTF-8" standalone="no"?>
<!-- Created with Inkscape (http://www.inkscape.org/) -->

<svg
   version="1.1"
   id="svg1"
   width="1139.6997"
   height="273.9407"
   viewBox="0 0 1139.6997 273.94071"
   sodipodi:docname="logo.svg"
   inkscape:version="1.3.2 (091e20ef0f, 2023-11-25)"
   xmlns:inkscape="http://www.inkscape.org/namespaces/inkscape"
   xmlns:sodipodi="http://sodipodi.sourceforge.net/DTD/sodipodi-0.dtd"
   xmlns="http://www.w3.org/2000/svg"
   xmlns:svg="http://www.w3.org/2000/svg">
  <sodipodi:namedview
     id="namedview1"
     pagecolor="#000000"
     bordercolor="#000000"
     borderopacity="0.25"
     inkscape:showpageshadow="2"
     inkscape:pageopacity="0.0"
     inkscape:pagecheckerboard="true"
     inkscape:deskcolor="#d1d1d1"
     labelstyle="default"
     shape-rendering="auto"
     inkscape:zoom="0.80354754"
     inkscape:cx="546.32735"
     inkscape:cy="196.00583"
     inkscape:window-width="1920"
     inkscape:window-height="1014"
     inkscape:window-x="0"
     inkscape:window-y="38"
     inkscape:window-maximized="1"
     inkscape:current-layer="svg1" />
  <defs
     id="defs1">
    <rect
       x="404.5611"
       y="702.55945"
       width="471.51846"
       height="110.27436"
       id="rect5-7" />
  </defs>
  <g
     id="g1"
     transform="matrix(0.98140373,0,0,0.96217154,31.870297,487.70033)">
    <path
       id="path5-5"
       style="fill:#ffffff;fill-opacity:1;stroke-width:0.1829;stroke-opacity:0.476994;paint-order:stroke fill markers"
       d="m 171.06411,-482.29363 c -2.73566,4.47906 -18.30137,-3.35632 -34.48694,-3.95372 -22.5044,-0.83064 -49.904226,5.73235 -78.600212,20.08843 -49.3346498,24.6812 -55.1774698,80.27269 -65.5694198,73.24382 -5.6313802,-3.80893 0.39319,-17.93033 9.87241,-37.27382 1.33406,-2.72234 3.9447,-7.93309 6.16721,-11.18073 6.8717498,-10.04135 16.0137898,-19.34924 27.1359798,-28.53057 3.24658,-2.68003 7.68368,-5.11893 11.63221,-7.0943 6.68551,-3.34463 13.8678,-9.39264 20.85234,-11.56603 11.658576,-3.62783 23.513676,-7.23414 35.030342,-7.68199 15.17778,-0.59022 30.08082,-0.1822 41.77216,2.60112 7.13949,1.69968 14.68717,3.83292 19.25249,6.10573 3.96576,1.9743 8.82382,2.16003 6.94143,5.24206 z" />
    <path
       style="fill:#cccccc;stroke:none;stroke-width:0.97996"
       d="m 163.91847,-248.50505 c -18.22605,5.98229 -36.74929,9.00536 -55.85766,5.38969 -43.159052,-8.16641 -81.268932,-47.41859 -81.336602,-92.60604 h 0.97996 c 3.09826,44.76565 48.160936,73.97048 89.176272,72.51699 v -0.97994 c -29.485236,-0.57528 -58.449472,-28.17244 -65.657252,-55.85771 h 0.97996 c 3.84852,11.37085 14.99698,21.15375 25.478936,26.4589 -17.594176,-30.97207 -23.654996,-65.29594 -13.133966,-99.95583 3.10045,-10.21392 8.490456,-18.93157 13.133966,-28.41882 h 0.97996 c -9.159886,21.27775 -17.131286,43.67697 -7.839676,66.63722 h 0.97996 c -2.13403,-10.39305 1.268756,-22.75331 5.348056,-32.33865 18.09206,-42.51206 84.781496,-66.22804 117.146816,-24.49897 -9.15571,-8.57117 -18.81254,-14.73803 -31.35869,-16.65931 v 0.97996 l 6.85971,6.85971 6.85972,5.87976 v 0.97995 c -15.34604,-3.26765 -28.78163,-3.65069 -44.09816,0 l 7.83967,-12.73946 v -0.97996 c -21.85074,5.4131 -36.80044,23.02036 -40.17832,45.07812 h 0.97996 c 17.61345,-34.80106 76.17525,-43.29794 94.66629,-3.91984 8.71078,18.55026 -11.37347,24.77973 -25.0892,17.63927 11.07467,16.39643 35.21172,8.24979 45.09427,-4.90734 13.49224,-17.96279 13.59933,-43.4852 5.37906,-63.6898 -12.88874,-31.67933 -44.93925,-51.29253 -76.93222,-59.1624 -24.88042,-6.12026 -52.413056,-5.04687 -76.436802,4.11255 -86.53105,32.99137 -115.470822,153.83719 -54.54499,223.60281 28.03134,32.09843 74.228796,50.47772 116.282402,38.90554 12.01031,-3.30499 25.79777,-8.9048 34.29857,-18.3264 m 5.87975,-236.17014 v 0.97995 c -16.56369,-4.07833 -31.73939,-7.65718 -48.99795,-6.78338 -53.478602,2.70757 -106.095832,37.67842 -127.3946618,87.14004 h -0.97996 l 8.21813997,-21.08359 3.54137003,-7.33522 0.97995,-1.95992 0.97996,-1.95992 1.95992,-2.93987 3.1789998,-3.88085 c 0,0 8.46663,-11.03561 13.42612,-15.87733 5.41826,-5.28959 17.69345,-14.24703 17.69345,-14.24703 38.097746,-26.83863 84.706782,-26.06455 127.394662,-12.05288 m 1.95992,1.30659 c 0.75794,0 0.15699,0.48794 -0.32665,0.32669 l 0.32665,-0.32669 m 2.93988,0.65332 -0.97996,0.97997 0.97996,-0.97997 M 16.924618,-448.4167 v 0 m -1.95991,1.95993 v 0 m 67.617166,19.59917 -2.93988,4.89979 h -0.97995 l 3.91983,-4.89979 m 49.977906,12.73946 -0.97996,0.97997 0.97996,-0.97997 m 45.07812,0 -0.97996,0.97997 0.97996,-0.97997 m 17.63926,1.95993 6.85972,11.75951 h -0.97997 l -5.87975,-11.75951 m -203.1781618,10.4529 -0.32666,0.65328 0.32666,-0.65328 m -0.65331,2.28657 -0.97996,0.97995 0.97996,-0.97995 m 213.3044118,2.61323 -0.32665,0.65328 0.32665,-0.65328 m 67.94382,27.7655 -11.75947,10.82177 -19.59921,19.55696 c 3.12401,-14.39064 15.93015,-24.22756 29.39881,-28.41881 v -0.97996 c -25.2774,2.59074 -41.22005,23.5342 -62.71742,34.29857 l 14.69938,-14.6994 v -0.97995 l -26.45889,17.63926 6.85971,-15.67935 h -0.97995 c -8.7351,19.10107 -28.11548,35.1497 -48.99796,38.68997 -26.64527,4.51723 -54.296126,-14.30344 -54.877696,-42.6098 h -0.97996 c -6.23717,27.86854 6.583406,56.19464 33.318596,67.70204 12.7739,5.49816 25.5526,5.79489 39.19836,5.79489 v -0.97996 c -12.99229,-3.42131 -12.40242,-19.20808 -22.53905,-25.47893 v -0.97996 c 17.40417,-1.04372 31.21313,-8.2098 46.05807,-16.6593 2.55619,12.35618 12.33305,23.23382 4.8998,35.27852 20.78774,-10.17653 35.38376,-28.57493 48.55708,-47.03803 9.22666,-12.93172 17.28338,-27.51966 31.79958,-35.27853 h -5.87978 m -24.49897,13.71942 -21.5591,29.39878 c 4.971,-10.95709 11.83969,-22.1278 21.5591,-29.39878 m -45.07812,5.87976 0.97996,0.97995 -0.97996,-0.97995 m -176.392622,9.79959 v 3.91984 h -0.97995 l 0.97995,-3.91984 m 219.510822,2.93987 -0.97996,0.97997 0.97996,-0.97997 m -1.95992,2.93989 -19.59917,22.53906 19.59917,-22.53906 m -48.99795,9.79959 -1.95992,1.95992 1.95992,-1.95992 m -144.053972,2.93987 -0.97996,0.97996 0.97996,-0.97996 m 210.691202,0.97996 v 7.83968 z"
       id="path4-6" />
    <path
       id="rect4-2"
       style="fill:#f2f2f2;fill-opacity:1;stroke-width:0.987922;stroke-opacity:0.476994;paint-order:stroke fill markers"
       d="m 140.32822,-427.8564 c 0,0 8.20489,-1.22655 11.53941,-1.38802 4.2263,-0.20464 11.1317,0.39177 11.1317,0.39177 l 4.20932,0.901 c 0,0 2.89703,0.71591 4.2721,1.18914 1.45187,0.49965 4.3431,1.67813 4.3431,1.67813 0,0 2.79606,1.4156 4.09342,2.1587 1.19934,0.68696 3.45974,1.96479 3.45974,1.96479 l 5.05427,3.71297 2.9045,2.44229 2.96339,2.63814 1.11507,1.14858 1.13422,1.48036 4.7164,9.20613 c 0,0 1.94576,8.37587 1.52419,9.5626 -0.64269,1.80921 -3.09998,8.41453 -3.09998,8.41453 l -1.70518,4.74103 c 0,0 0.0551,-0.82484 -0.0331,-1.7667 -0.12634,-1.34823 -0.42495,-2.96554 -0.56688,-2.99542 0.0369,-0.71507 -1.8311,-5.19213 -3.26088,-7.61587 l -2.02313,-3.32322 -4.02358,-5.03449 -4.99201,-4.62834 -6.05133,-4.04975 -8.01144,-3.35356 -3.85426,-0.98485 -5.89452,-1.08563 -5.53998,-0.30346 -4.74118,0.14327 -5.41354,0.65506 -5.26456,1.07285 -5.05395,1.48411 -3.34972,1.19214 -8.05623,4.01037 -6.94417,4.74614 -4.96621,4.52088 -4.16408,4.73541 -4.48317,7.39072 -1.19217,0.0246 c 0,0 1.04154,-5.10999 2.43104,-9.69221 1.12559,-3.71186 3.98767,-9.24963 3.98767,-9.24963 0,0 2.22635,-3.84188 3.53895,-5.62706 1.53349,-2.08565 3.16881,-4.12016 5.04219,-5.90674 0.74632,-0.71175 0.99659,-1.11176 2.61119,-2.62123 1.59726,-1.49326 3.98937,-3.37777 6.03997,-4.60833 0.99808,-0.59894 1.53562,-1.03609 2.53663,-1.61768 1.40959,-0.81899 3.28078,-1.75712 4.6638,-2.3788 5.05793,-2.27358 9.37302,-3.37474 9.37302,-3.37474 z" />
    <path
       d="m 272.67168,-369.05397 -11.75955,10.82178 -19.59916,19.55695 c 3.12402,-14.39064 15.93018,-24.22756 29.39876,-28.41882 v -0.97995 c -25.27735,2.59074 -41.21999,23.53422 -62.71736,34.29856 l 14.69938,-14.69937 v -0.97997 l -26.45889,17.63926 6.85971,-15.67934 h -0.97995 c -8.7351,19.10106 -28.11549,35.14969 -48.99797,38.68996 -26.64526,4.51724 -54.296106,-14.30343 -54.877706,-42.6098 h -0.97995 c -6.23716,27.86855 6.583406,56.19465 33.318606,67.70204 12.77389,5.49816 25.55259,5.79489 39.19836,5.79489 0,0 9.86642,-1.31387 14.234,-2.64335 5.14217,-1.56524 14.18482,-6.17627 14.18482,-6.17627 20.78773,-10.17654 35.38376,-28.57493 48.55707,-47.03805 9.22669,-12.9317 17.28341,-27.51965 31.7996,-35.27852 h -5.87977 m -24.49899,13.71943 -21.55911,29.39877 c 4.97101,-10.95708 11.83969,-22.1278 21.55911,-29.39877 m -45.07812,5.87975 0.97996,0.97997 -0.97996,-0.97997 m 43.1182,12.73947 -0.97996,0.97995 0.97996,-0.97995 m -1.95991,2.93987 -19.59919,22.53907 19.59919,-22.53907 m -48.99796,9.79959 v 0 m 66.63725,3.91984 v 7.83967 z"
       style="fill:#f9f9f9;fill-opacity:1;stroke:none;stroke-width:0.97996"
       id="path1-9" />
    <text
       xml:space="preserve"
       id="text5-1"
       style="font-style:normal;font-variant:normal;font-weight:800;font-stretch:normal;font-size:37.3333px;font-family:SUSE;-inkscape-font-specification:'SUSE Ultra-Bold';white-space:pre;shape-inside:url(#rect5-7);display:inline;fill:#cccccc;fill-opacity:1;stroke-width:0.4;stroke-opacity:0.476994;paint-order:stroke fill markers"
       transform="matrix(4.7901385,0,0,4.2664797,-1662.1676,-3446.2545)"><tspan
         x="404.56055"
         y="736.26227"
         id="tspan1">onect-arte</tspan></text>
    <text
       xml:space="preserve"
       style="font-style:normal;font-variant:normal;font-weight:bold;font-stretch:normal;font-size:69.6993px;font-family:SUSE;-inkscape-font-specification:'SUSE Bold';fill:#ffffff;fill-opacity:1;stroke-width:0.871241;stroke-opacity:0.476994;paint-order:stroke fill markers"
       x="293.25671"
       y="-217.71767"
       id="text6-2"
       transform="matrix(0.9558803,0,-0.00565019,1.0461561,0,0)"><tspan
         id="tspan6-7"
         x="293.25671"
         y="-217.71767"
         style="font-style:normal;font-variant:normal;font-weight:bold;font-stretch:normal;font-family:SUSE;-inkscape-font-specification:'SUSE Bold';fill:#ffffff;fill-opacity:1;stroke-width:0.871241">Alianza Teatral</tspan></text>
  </g>
</svg>
